<?xml version="1.0" standalone="no"?>
<!DOCTYPE svg PUBLIC "-//W3C//DTD SVG 1.1//EN"
	"http://www.w3.org/Graphics/SVG/1.1/DTD/svg11.dtd">
<svg xmlns="http://www.w3.org/2000/svg"
     xmlns:xlink="http://www.w3.org/1999/xlink"
     xml:space='preserve'
	width="515" height="143">
<title>tmp/lgLaWp.abc (1)</title>
<g transform="scale(0.750)" font-family="Times" font-size="20.00">
<text x="343.03" y="25.67" text-anchor="middle">Celia&apos;s Song</text>
<path stroke="currentColor" fill="none"
	d="M13.33 98.01h659.40m-659.40 -6h659.40m-659.40 -6h659.40m-659.40 -6h659.40m-659.40 -6h659.40"/>
<defs>
<path id="utclef" fill="currentColor" d="m-50 -90
	c-72 -41 -72 -158 52 -188
	c150 -10 220 188 90 256
	c-114 52 -275 0 -293 -136
	c-15 -181 93 -229 220 -334
	c88 -87 79 -133 62 -210
	c-51 33 -94 105 -89 186
	c17 267 36 374 49 574
	c6 96 -19 134 -77 135
	c-80 1 -126 -93 -61 -133
	c85 -41 133 101 31 105
	c23 17 92 37 90 -92
	c-10 -223 -39 -342 -50 -617
	c0 -90 0 -162 96 -232
	c56 72 63 230 22 289
	c-74 106 -257 168 -255 316
	c9 153 148 185 252 133
	c86 -65 29 -192 -80 -176
	c-71 12 -105 67 -59 124"/>
<use id="tclef" transform="scale(0.045)"
	xlink:href="#utclef"/>
</defs>
<use x="25.33" y="98.01" xlink:href="#tclef"/>
<defs>
<path id="csig" fill="currentColor" d="
	m1 -17.3
	c0.9 0 2.3 0.7 2.4 2.2
	c-1.2 -2 -3.6 0.1 -1.6 1.7
	c2 1 3.8 -3.5 -0.8 -4.7
	c-2 -0.4 -6.4 1.3 -5.8 7
	c0.4 6.4 7.9 6.8 9.1 0.7
	c-2.3 5.6 -6.7 5.1 -6.8 0
	c-0.5 -4.4 0.7 -7.5 3.5 -6.9"/>
</defs>
<use x="43.83" y="98.01" xlink:href="#csig"/>
<defs>
<path id="hl" stroke="currentColor" d="m-6 0h12"/>
</defs>
<use x="61.83" y="104.01" xlink:href="#hl"/>
<defs>
<ellipse id="hd" rx="4.2" ry="3.2"
	transform="rotate(-20)" fill="currentColor"/>
</defs>
<use x="61.83" y="104.01" xlink:href="#hd"/>
<path d="M65.33 104.01v-20.00" stroke="currentColor" fill="none"/>
<path fill="currentColor"
	d="	M65.33 84.01c0.6 5.6 9.6 9 5.6 18.4
	c1.6 -6 -1.3 -11.6 -5.6 -12.8
"/>
<path fill="currentColor"
	d="M77.03 98.31l20.90 -4.10v-3.20l-20.90 4.10"/>
<use x="80.83" y="77.01" xlink:href="#hd"/>
<path d="M77.33 77.01v20.20" stroke="currentColor" fill="none"/>
<use x="90.93" y="77.01" xlink:href="#hd"/>
<path d="M87.43 77.01v18.20" stroke="currentColor" fill="none"/>
<use x="101.03" y="68.01" xlink:href="#hl"/>
<use x="101.03" y="65.01" xlink:href="#hd"/>
<path d="M97.53 65.01v28.20" stroke="currentColor" fill="none"/>
<use x="112.53" y="68.01" xlink:href="#hl"/>
<use x="112.53" y="68.01" xlink:href="#hd"/>
<path d="M109.03 68.01v20.00" stroke="currentColor" fill="none"/>
<defs>
<path id="r4" fill="currentColor" d="m-1 -8.5
	l3.6 5.1 -2.1 5.2 2.2 4.3
	c-2.6 -2.3 -5.1 0 -2.4 2.6
	c-4.8 -3 -1.5 -6.9 1.4 -4.1
	l-3.1 -4.5 1.9 -5.1 -1.5 -3.5"/>
</defs>
<use x="126.03" y="86.01" xlink:href="#r4"/>
<path stroke="currentColor" fill="none"
	d="M138.83 98.01v-24.00"/>
<use x="151.33" y="104.01" xlink:href="#hl"/>
<use x="151.33" y="104.01" xlink:href="#hd"/>
<path d="M154.83 104.01v-20.00" stroke="currentColor" fill="none"/>
<path fill="currentColor"
	d="	M154.83 84.01c0.6 5.6 9.6 9 5.6 18.4
	c1.6 -6 -1.3 -11.6 -5.6 -12.8
"/>
<path fill="currentColor"
	d="M166.43 98.31l20.90 -4.10v-3.20l-20.90 4.10"/>
<use x="170.33" y="77.01" xlink:href="#hd"/>
<path d="M166.83 77.01v20.20" stroke="currentColor" fill="none"/>
<use x="180.43" y="77.01" xlink:href="#hd"/>
<path d="M176.93 77.01v18.20" stroke="currentColor" fill="none"/>
<use x="190.53" y="68.01" xlink:href="#hl"/>
<use x="190.53" y="65.01" xlink:href="#hd"/>
<path d="M187.03 65.01v28.20" stroke="currentColor" fill="none"/>
<use x="202.03" y="68.01" xlink:href="#hl"/>
<use x="202.03" y="68.01" xlink:href="#hd"/>
<path d="M198.53 68.01v20.00" stroke="currentColor" fill="none"/>
<use x="215.53" y="86.01" xlink:href="#r4"/>
<path stroke="currentColor" fill="none"
	d="M228.33 98.01v-24.00"/>
<use x="240.83" y="104.01" xlink:href="#hl"/>
<use x="240.83" y="104.01" xlink:href="#hd"/>
<path d="M244.33 104.01v-20.00" stroke="currentColor" fill="none"/>
<path fill="currentColor"
	d="	M244.33 84.01c0.6 5.6 9.6 9 5.6 18.4
	c1.6 -6 -1.3 -11.6 -5.6 -12.8
"/>
<path fill="currentColor"
	d="M255.93 98.31l20.90 -4.10v-3.20l-20.90 4.10"/>
<use x="259.83" y="77.01" xlink:href="#hd"/>
<path d="M256.33 77.01v20.20" stroke="currentColor" fill="none"/>
<use x="269.93" y="77.01" xlink:href="#hd"/>
<path d="M266.43 77.01v18.20" stroke="currentColor" fill="none"/>
<use x="280.03" y="68.01" xlink:href="#hl"/>
<use x="280.03" y="65.01" xlink:href="#hd"/>
<path d="M276.53 65.01v28.20" stroke="currentColor" fill="none"/>
<use x="291.53" y="68.01" xlink:href="#hl"/>
<use x="291.53" y="68.01" xlink:href="#hd"/>
<path d="M288.03 68.01v20.00" stroke="currentColor" fill="none"/>
<use x="304.93" y="77.01" xlink:href="#hd"/>
<path d="M301.43 77.01v20.00" stroke="currentColor" fill="none"/>
<path stroke="currentColor" fill="none"
	d="M317.73 98.01v-24.00"/>
<use x="330.23" y="74.01" xlink:href="#hd"/>
<path d="M326.73 74.01v20.00" stroke="currentColor" fill="none"/>
<defs>
<path id="Hd" fill="currentColor" d="m3 -1.6
	c-1 -1.8 -7 1.4 -6 3.2
	c1 1.8 7 -1.4 6 -3.2
	m0.5 -0.3
	c2 3.8 -5 7.6 -7 3.8
	c-2 -3.8 5 -7.6 7 -3.8"/>
</defs>
<use x="344.03" y="80.01" xlink:href="#Hd"/>
<path d="M340.53 80.01v20.00" stroke="currentColor" fill="none"/>
<use x="361.53" y="86.01" xlink:href="#r4"/>
<path stroke="currentColor" fill="none"
	d="M374.33 98.01v-24.00"/>
<path fill="currentColor"
	d="M383.03 118.31l31.00 -8.40v-3.20l-31.00 8.40"/>
<use x="386.83" y="101.01" xlink:href="#hd"/>
<path d="M383.33 101.01v16.20" stroke="currentColor" fill="none"/>
<use x="396.93" y="80.01" xlink:href="#hd"/>
<path d="M393.43 80.01v34.50" stroke="currentColor" fill="none"/>
<use x="407.13" y="80.01" xlink:href="#hd"/>
<path d="M403.63 80.01v31.70" stroke="currentColor" fill="none"/>
<use x="417.23" y="68.01" xlink:href="#hl"/>
<use x="417.23" y="65.01" xlink:href="#hd"/>
<path d="M413.73 65.01v44.00" stroke="currentColor" fill="none"/>
<use x="428.63" y="68.01" xlink:href="#hl"/>
<use x="428.63" y="68.01" xlink:href="#hd"/>
<path d="M425.13 68.01v20.00" stroke="currentColor" fill="none"/>
<use x="442.13" y="86.01" xlink:href="#r4"/>
<path stroke="currentColor" fill="none"
	d="M454.93 98.01v-24.00"/>
<path fill="currentColor"
	d="M463.63 118.31l31.00 -8.40v-3.20l-31.00 8.40"/>
<use x="467.43" y="101.01" xlink:href="#hd"/>
<path d="M463.93 101.01v16.20" stroke="currentColor" fill="none"/>
<use x="477.53" y="80.01" xlink:href="#hd"/>
<path d="M474.03 80.01v34.50" stroke="currentColor" fill="none"/>
<use x="487.63" y="80.01" xlink:href="#hd"/>
<path d="M484.13 80.01v31.70" stroke="currentColor" fill="none"/>
<use x="497.83" y="68.01" xlink:href="#hl"/>
<use x="497.83" y="65.01" xlink:href="#hd"/>
<path d="M494.33 65.01v44.00" stroke="currentColor" fill="none"/>
<use x="509.23" y="68.01" xlink:href="#hl"/>
<use x="509.23" y="68.01" xlink:href="#hd"/>
<path d="M505.73 68.01v20.00" stroke="currentColor" fill="none"/>
<use x="522.73" y="86.01" xlink:href="#r4"/>
<path stroke="currentColor" fill="none"
	d="M535.53 98.01v-24.00"/>
<path fill="currentColor"
	d="M544.23 118.31l31.00 -8.40v-3.20l-31.00 8.40"/>
<use x="548.03" y="101.01" xlink:href="#hd"/>
<path d="M544.53 101.01v16.20" stroke="currentColor" fill="none"/>
<use x="558.13" y="80.01" xlink:href="#hd"/>
<path d="M554.63 80.01v34.50" stroke="currentColor" fill="none"/>
<use x="568.23" y="80.01" xlink:href="#hd"/>
<path d="M564.73 80.01v31.70" stroke="currentColor" fill="none"/>
<use x="578.43" y="68.01" xlink:href="#hl"/>
<use x="578.43" y="65.01" xlink:href="#hd"/>
<path d="M574.93 65.01v44.00" stroke="currentColor" fill="none"/>
<use x="589.83" y="68.01" xlink:href="#hl"/>
<use x="589.83" y="68.01" xlink:href="#hd"/>
<path d="M586.33 68.01v20.00" stroke="currentColor" fill="none"/>
<use x="603.33" y="80.01" xlink:href="#hd"/>
<path d="M599.83 80.01v20.00" stroke="currentColor" fill="none"/>
<path stroke="currentColor" fill="none"
	d="M616.13 98.01v-24.00"/>
<use x="628.63" y="77.01" xlink:href="#hd"/>
<path d="M625.13 77.01v20.00" stroke="currentColor" fill="none"/>
<use x="642.33" y="83.01" xlink:href="#Hd"/>
<path d="M638.83 83.01v20.00" stroke="currentColor" fill="none"/>
<use x="659.93" y="86.01" xlink:href="#r4"/>
<path stroke="currentColor" fill="none"
	d="M672.73 98.01v-24.00"/>
<path stroke="currentColor" fill="none"
	d="M13.33 168.01h659.40m-659.40 -6h659.40m-659.40 -6h659.40m-659.40 -6h659.40m-659.40 -6h659.40"/>
<use x="25.33" y="168.01" xlink:href="#tclef"/>
<use x="49.83" y="174.01" xlink:href="#hl"/>
<use x="49.83" y="174.01" xlink:href="#hd"/>
<path d="M53.33 174.01v-20.00" stroke="currentColor" fill="none"/>
<path fill="currentColor"
	d="	M53.33 154.01c0.6 5.6 9.6 9 5.6 18.4
	c1.6 -6 -1.3 -11.6 -5.6 -12.8
"/>
<path fill="currentColor"
	d="M65.03 168.31l22.30 -4.20v-3.20l-22.30 4.20"/>
<use x="68.83" y="147.01" xlink:href="#hd"/>
<path d="M65.33 147.01v20.20" stroke="currentColor" fill="none"/>
<use x="79.63" y="147.01" xlink:href="#hd"/>
<path d="M76.13 147.01v18.20" stroke="currentColor" fill="none"/>
<use x="90.43" y="138.01" xlink:href="#hl"/>
<use x="90.43" y="135.01" xlink:href="#hd"/>
<path d="M86.93 135.01v28.20" stroke="currentColor" fill="none"/>
<use x="102.63" y="138.01" xlink:href="#hl"/>
<use x="102.63" y="138.01" xlink:href="#hd"/>
<path d="M99.13 138.01v20.00" stroke="currentColor" fill="none"/>
<use x="117.63" y="156.01" xlink:href="#r4"/>
<path stroke="currentColor" fill="none"
	d="M131.63 168.01v-24.00"/>
<use x="144.13" y="174.01" xlink:href="#hl"/>
<use x="144.13" y="174.01" xlink:href="#hd"/>
<path d="M147.63 174.01v-20.00" stroke="currentColor" fill="none"/>
<path fill="currentColor"
	d="	M147.63 154.01c0.6 5.6 9.6 9 5.6 18.4
	c1.6 -6 -1.3 -11.6 -5.6 -12.8
"/>
<path fill="currentColor"
	d="M159.33 168.31l22.30 -4.20v-3.20l-22.30 4.20"/>
<use x="163.13" y="147.01" xlink:href="#hd"/>
<path d="M159.63 147.01v20.20" stroke="currentColor" fill="none"/>
<use x="173.93" y="147.01" xlink:href="#hd"/>
<path d="M170.43 147.01v18.20" stroke="currentColor" fill="none"/>
<use x="184.73" y="138.01" xlink:href="#hl"/>
<use x="184.73" y="135.01" xlink:href="#hd"/>
<path d="M181.23 135.01v28.20" stroke="currentColor" fill="none"/>
<use x="196.93" y="138.01" xlink:href="#hl"/>
<use x="196.93" y="138.01" xlink:href="#hd"/>
<path d="M193.43 138.01v20.00" stroke="currentColor" fill="none"/>
<use x="211.93" y="156.01" xlink:href="#r4"/>
<path stroke="currentColor" fill="none"
	d="M225.93 168.01v-24.00"/>
<use x="238.43" y="174.01" xlink:href="#hl"/>
<use x="238.43" y="174.01" xlink:href="#hd"/>
<path d="M241.93 174.01v-20.00" stroke="currentColor" fill="none"/>
<path fill="currentColor"
	d="	M241.93 154.01c0.6 5.6 9.6 9 5.6 18.4
	c1.6 -6 -1.3 -11.6 -5.6 -12.8
"/>
<path fill="currentColor"
	d="M253.63 168.31l22.30 -4.20v-3.20l-22.30 4.20"/>
<use x="257.43" y="147.01" xlink:href="#hd"/>
<path d="M253.93 147.01v20.20" stroke="currentColor" fill="none"/>
<use x="268.23" y="147.01" xlink:href="#hd"/>
<path d="M264.73 147.01v18.20" stroke="currentColor" fill="none"/>
<use x="279.03" y="138.01" xlink:href="#hl"/>
<use x="279.03" y="135.01" xlink:href="#hd"/>
<path d="M275.53 135.01v28.20" stroke="currentColor" fill="none"/>
<use x="291.23" y="138.01" xlink:href="#hl"/>
<use x="291.23" y="138.01" xlink:href="#hd"/>
<path d="M287.73 138.01v20.00" stroke="currentColor" fill="none"/>
<use x="306.23" y="147.01" xlink:href="#hd"/>
<path d="M302.73 147.01v20.00" stroke="currentColor" fill="none"/>
<path stroke="currentColor" fill="none"
	d="M320.23 168.01v-24.00"/>
<use x="333.23" y="144.01" xlink:href="#Hd"/>
<circle fill="currentColor" cx="342.23" cy="141.01" r="1.2"/>
<path d="M329.73 144.01v20.00" stroke="currentColor" fill="none"/>
<use x="358.53" y="156.01" xlink:href="#r4"/>
<path stroke="currentColor" fill="none"
	d="M372.53 168.01v-24.00"/>
<path fill="currentColor"
	d="M381.23 188.31l33.10 -8.70v-3.20l-33.10 8.70"/>
<use x="385.03" y="171.01" xlink:href="#hd"/>
<path d="M381.53 171.01v16.20" stroke="currentColor" fill="none"/>
<use x="395.83" y="150.01" xlink:href="#hd"/>
<path d="M392.33 150.01v34.40" stroke="currentColor" fill="none"/>
<use x="406.63" y="150.01" xlink:href="#hd"/>
<path d="M403.13 150.01v31.50" stroke="currentColor" fill="none"/>
<use x="417.43" y="138.01" xlink:href="#hl"/>
<use x="417.43" y="135.01" xlink:href="#hd"/>
<path d="M413.93 135.01v43.70" stroke="currentColor" fill="none"/>
<use x="429.63" y="138.01" xlink:href="#hl"/>
<use x="429.63" y="138.01" xlink:href="#hd"/>
<path d="M426.13 138.01v20.00" stroke="currentColor" fill="none"/>
<use x="444.63" y="156.01" xlink:href="#r4"/>
<path stroke="currentColor" fill="none"
	d="M458.63 168.01v-24.00"/>
<path fill="currentColor"
	d="M467.33 188.31l33.10 -8.70v-3.20l-33.10 8.70"/>
<use x="471.13" y="171.01" xlink:href="#hd"/>
<path d="M467.63 171.01v16.20" stroke="currentColor" fill="none"/>
<use x="481.93" y="150.01" xlink:href="#hd"/>
<path d="M478.43 150.01v34.40" stroke="currentColor" fill="none"/>
<use x="492.73" y="150.01" xlink:href="#hd"/>
<path d="M489.23 150.01v31.50" stroke="currentColor" fill="none"/>
<use x="503.53" y="138.01" xlink:href="#hl"/>
<use x="503.53" y="135.01" xlink:href="#hd"/>
<path d="M500.03 135.01v43.70" stroke="currentColor" fill="none"/>
<use x="515.73" y="138.01" xlink:href="#hl"/>
<use x="515.73" y="138.01" xlink:href="#hd"/>
<path d="M512.23 138.01v20.00" stroke="currentColor" fill="none"/>
<use x="530.73" y="156.01" xlink:href="#r4"/>
<path stroke="currentColor" fill="none"
	d="M544.73 168.01v-24.00"/>
<path fill="currentColor"
	d="M553.43 188.31l33.10 -8.70v-3.20l-33.10 8.70"/>
<use x="557.23" y="171.01" xlink:href="#hd"/>
<path d="M553.73 171.01v16.20" stroke="currentColor" fill="none"/>
<use x="568.03" y="150.01" xlink:href="#hd"/>
<path d="M564.53 150.01v34.40" stroke="currentColor" fill="none"/>
<use x="578.83" y="150.01" xlink:href="#hd"/>
<path d="M575.33 150.01v31.50" stroke="currentColor" fill="none"/>
<use x="589.63" y="138.01" xlink:href="#hl"/>
<use x="589.63" y="135.01" xlink:href="#hd"/>
<path d="M586.13 135.01v43.70" stroke="currentColor" fill="none"/>
<use x="601.83" y="138.01" xlink:href="#hl"/>
<use x="601.83" y="138.01" xlink:href="#hd"/>
<path d="M598.33 138.01v20.00" stroke="currentColor" fill="none"/>
<use x="617.43" y="138.01" xlink:href="#hl"/>
<use x="617.43" y="135.01" xlink:href="#hd"/>
<path d="M613.93 135.01v21.00" stroke="currentColor" fill="none"/>
<path stroke="currentColor" fill="none"
	d="M631.43 168.01v-24.00"/>
<defs>
<path id="hl1" stroke="currentColor" d="m-7 0h14"/>
</defs>
<use x="646.43" y="174.01" xlink:href="#hl1"/>
<use x="646.43" y="138.01" xlink:href="#hl1"/>
<use x="646.43" y="132.01" xlink:href="#hl1"/>
<defs>
<path id="HD" fill="currentColor" d="m-2.7 -1.4
	c1.5 -2.8 6.9 0 5.3 2.7
	c-1.5 2.8 -6.9 0 -5.3 -2.7
	m8.3 1.4
	c0 -1.5 -2.2 -3 -5.6 -3
	c-3.4 0 -5.6 1.5 -5.6 3
	c0 1.5 2.2 3 5.6 3
	c3.4 0 5.6 -1.5 5.6 -3"/>
</defs>
<use x="646.43" y="132.01" xlink:href="#HD"/>
<use x="646.43" y="174.01" xlink:href="#HD"/>
<use x="646.43" y="153.01" xlink:href="#HD"/>
<path stroke="currentColor" fill="none" stroke-width="3"
	d="M671.23 168.01v-24.00"/>
<path stroke="currentColor" fill="none"
	d="M666.73 168.01v-24.00"/>
</g>
</svg>
